# xmcd
#
# Track frame offsets:
# 150
# 24538
# 45486
# 61332
# 73986
# 96045
# 120887
# 137550
# 163086
# 180918
# 203566
# 227591
# 250163
# 273229
# 280069
#
# Disc length: 4076 seconds
#
# Revision: 0
# Processed by: cddbd v1.5.2PL0 Copyright (c) Steve Scherf et al.
# Submitted via: Audion 3.0.2 (http://www.panic.com/audion/)
#
DISCID=c30fea0f
DTITLE=Patricia Cornwell - Trace [CD5]
DYEAR=1900
DGENRE=
TTITLE0=Temp 01
TTITLE1=Temp 02
TTITLE2=Temp 03
TTITLE3=Temp 04
TTITLE4=Temp 05
TTITLE5=Temp 06
TTITLE6=Temp 07
TTITLE7=Temp 08
TTITLE8=Temp 09
TTITLE9=Temp 10
TTITLE10=Temp 11
TTITLE11=Temp 12
TTITLE12=Temp 13
TTITLE13=Temp 14
TTITLE14=Temp 15
EXTD=
EXTT0=
EXTT1=
EXTT2=
EXTT3=
EXTT4=
EXTT5=
EXTT6=
EXTT7=
EXTT8=
EXTT9=
EXTT10=
EXTT11=
EXTT12=
EXTT13=
EXTT14=
PLAYORDER=
